<?xml version="1.0" encoding="UTF-8" standalone="no"?>
<!DOCTYPE svg PUBLIC "-//W3C//DTD SVG 1.1//EN" "http://www.w3.org/Graphics/SVG/1.1/DTD/svg11.dtd">
<svg width="100%" height="100%" viewBox="0 0 526 526" version="1.1" xmlns="http://www.w3.org/2000/svg" xmlns:xlink="http://www.w3.org/1999/xlink" xml:space="preserve" xmlns:serif="http://www.serif.com/" style="fill-rule:evenodd;clip-rule:evenodd;stroke-linejoin:round;stroke-miterlimit:1.41421;">
    <g id="Clock-Basic-Icon" transform="matrix(8.46913,0,0,8.46913,-7557.21,-8867.42)">
        <path d="M923.379,1047.07C940.497,1047.07 954.395,1060.96 954.395,1078.08C954.395,1095.2 940.497,1109.1 923.379,1109.1C906.26,1109.1 892.362,1095.2 892.362,1078.08C892.362,1060.96 906.26,1047.07 923.379,1047.07ZM923.379,1052.03C937.757,1052.03 949.43,1063.7 949.43,1078.08C949.43,1092.46 937.757,1104.13 923.379,1104.13C909,1104.13 897.327,1092.46 897.327,1078.08C897.327,1063.7 909,1052.03 923.379,1052.03Z" style="fill:white;"/>
    </g>
    <g transform="matrix(0.914715,0,0,0.914715,23.6883,20.1029)">
        <path d="M278.165,123.682C278.165,117.344 273.019,112.198 266.68,112.198L243.712,112.198C237.373,112.198 232.227,117.344 232.227,123.682L232.227,292.708C232.227,299.047 237.373,304.192 243.712,304.192L266.68,304.192C273.019,304.192 278.165,299.047 278.165,292.708L278.165,123.682Z" style="fill:white;"/>
    </g>
    <g transform="matrix(5.60101e-17,0.914715,-0.914715,5.60101e-17,514.359,43.9108)">
        <path d="M278.165,123.682C278.165,117.344 273.019,112.198 266.68,112.198L243.712,112.198C237.373,112.198 232.227,117.344 232.227,123.682L232.227,292.708C232.227,299.047 237.373,304.192 243.712,304.192L266.68,304.192C273.019,304.192 278.165,299.047 278.165,292.708L278.165,123.682Z" style="fill:white;"/>
    </g>
</svg>
