<?xml version="1.0" encoding="UTF-8" standalone="no"?>
<!DOCTYPE svg PUBLIC "-//W3C//DTD SVG 1.1//EN" "http://www.w3.org/Graphics/SVG/1.1/DTD/svg11.dtd">
<svg width="100%" height="100%" viewBox="0 0 526 526" version="1.1" xmlns="http://www.w3.org/2000/svg" xmlns:xlink="http://www.w3.org/1999/xlink" xml:space="preserve" xmlns:serif="http://www.serif.com/" style="fill-rule:evenodd;clip-rule:evenodd;stroke-linejoin:round;stroke-miterlimit:1.41421;">
    <g transform="matrix(2.94128,0,0,2.94128,-1411.15,-1942.96)">
        <g transform="matrix(1,0,0,1,0,-3.48554)">
            <path d="M568.904,674.38C578.038,663.155 599.045,663.626 607.29,674.611C613.478,682.856 614.93,698.958 604.566,709.423C593.999,720.092 576.582,738.014 568.975,744.773L568.975,744.9L568.904,744.836L568.832,744.9L568.832,744.773C561.225,738.014 543.809,720.092 533.241,709.423C522.877,698.958 524.329,682.856 530.518,674.611C538.762,663.626 559.769,663.155 568.904,674.38Z" style="fill:white;"/>
        </g>
        <g transform="matrix(1,0,0,-1,0,1503.49)">
            <path d="M568.904,674.38C578.038,663.155 599.045,663.626 607.29,674.611C613.478,682.856 614.93,698.958 604.566,709.423C593.999,720.092 576.582,738.014 568.975,744.773L568.975,744.9L568.904,744.836L568.832,744.9L568.832,744.773C561.225,738.014 543.809,720.092 533.241,709.423C522.877,698.958 524.329,682.856 530.518,674.611C538.762,663.626 559.769,663.155 568.904,674.38Z" style="fill:white;"/>
        </g>
        <g transform="matrix(6.12323e-17,1,-1,6.12323e-17,1322.36,181.036)">
            <path d="M568.904,674.38C578.038,663.155 599.045,663.626 607.29,674.611C613.478,682.856 614.93,698.958 604.566,709.423C593.999,720.092 576.582,738.014 568.975,744.773L568.975,744.9L568.904,744.836L568.832,744.9L568.832,744.773C561.225,738.014 543.809,720.092 533.241,709.423C522.877,698.958 524.329,682.856 530.518,674.611C538.762,663.626 559.769,663.155 568.904,674.38Z" style="fill:white;"/>
        </g>
        <g transform="matrix(-6.12323e-17,1,1,6.12323e-17,-183.982,181.036)">
            <path d="M568.904,674.38C578.038,663.155 599.045,663.626 607.29,674.611C613.478,682.856 614.93,698.958 604.566,709.423C593.999,720.092 576.582,738.014 568.975,744.773L568.975,744.9L568.904,744.836L568.832,744.9L568.832,744.773C561.225,738.014 543.809,720.092 533.241,709.423C522.877,698.958 524.329,682.856 530.518,674.611C538.762,663.626 559.769,663.155 568.904,674.38Z" style="fill:white;"/>
        </g>
    </g>
</svg>
